<?xml version="1.0" encoding="UTF-8" ?>
<!DOCTYPE svg PUBLIC "-//W3C//DTD SVG 1.1//EN" "http://www.w3.org/Graphics/SVG/1.1/DTD/svg11.dtd">
<svg width="500pt" height="500pt" viewBox="0 0 500 500" version="1.1" xmlns="http://www.w3.org/2000/svg">
<g id="#02afbbff">
<path fill="#02afbb" opacity="1.00" d=" M 172.95 60.34 C 190.05 56.72 207.49 54.00 225.01 54.39 C 235.69 54.41 246.36 54.36 257.03 54.41 C 304.32 56.99 351.16 72.46 389.58 100.38 C 398.10 90.12 406.78 80.00 415.24 69.69 C 431.40 85.17 446.92 101.32 462.89 117.01 C 453.13 125.08 443.52 133.33 433.72 141.35 C 446.37 156.89 456.63 174.45 463.21 193.41 C 470.27 190.88 477.31 188.28 484.36 185.73 C 489.63 204.65 494.36 223.73 500.00 242.54 L 500.00 242.56 C 490.86 244.54 481.60 245.86 472.42 247.61 C 473.08 280.19 463.99 312.90 446.33 340.31 C 429.75 366.13 406.73 387.32 381.34 404.30 C 347.38 426.98 307.49 440.11 266.94 443.94 C 231.52 447.31 195.38 445.12 160.98 435.77 C 129.43 427.22 99.68 412.16 74.07 391.85 C 49.76 372.70 28.53 348.91 15.44 320.66 C -0.18 287.29 -3.55 248.78 3.91 212.86 C 10.68 180.42 28.14 150.80 51.41 127.44 C 84.29 93.93 127.07 70.31 172.95 60.34 M 153.41 112.51 C 126.62 123.84 102.45 141.42 83.55 163.53 C 68.08 181.78 57.27 204.13 53.71 227.86 C 49.74 254.11 52.79 281.74 64.36 305.78 C 75.98 330.49 95.50 350.66 117.52 366.41 C 144.31 385.63 176.26 397.31 209.00 400.76 C 251.11 405.53 295.24 399.98 333.04 380.05 C 356.00 367.96 376.72 351.33 392.84 330.94 C 409.42 309.93 419.43 283.76 420.52 256.97 C 413.22 257.76 406.08 259.52 398.82 260.55 C 395.28 247.28 391.69 234.02 388.14 220.75 C 397.09 217.49 406.01 214.17 414.98 210.99 C 411.48 197.25 404.58 184.54 396.51 172.96 C 388.74 178.99 381.31 185.46 373.84 191.86 C 362.60 181.10 351.75 169.92 340.73 158.94 C 346.65 150.93 353.43 143.58 359.77 135.89 C 330.58 113.48 294.63 100.64 258.07 97.64 C 222.72 94.47 186.27 98.71 153.41 112.51 Z" />
<path fill="#02afbb" opacity="1.00" d=" M 248.08 125.16 C 260.57 121.30 273.11 117.28 286.00 115.03 C 291.23 136.81 296.41 158.61 301.68 180.38 C 276.90 183.99 252.92 192.56 231.40 205.35 C 217.96 213.04 205.77 223.83 199.00 237.98 C 195.49 245.13 193.51 253.00 192.89 260.93 C 193.40 271.60 197.00 282.62 204.86 290.15 C 209.82 295.26 216.29 298.48 222.75 301.27 C 232.17 305.26 242.44 307.15 252.67 306.71 C 252.74 298.13 252.64 289.55 253.20 280.99 C 252.67 271.25 252.48 261.48 252.45 251.72 C 276.75 251.69 301.04 251.66 325.33 251.74 C 325.15 286.71 325.16 321.68 325.66 356.64 C 290.11 364.72 253.07 366.55 216.93 361.57 C 196.57 358.59 176.08 353.44 158.31 342.72 C 143.27 333.42 130.47 320.20 122.30 304.46 C 114.34 289.00 112.08 271.11 114.00 253.96 C 116.19 238.88 122.14 224.60 129.30 211.25 C 140.09 192.13 156.20 176.64 173.38 163.25 C 195.42 145.68 221.44 133.90 248.08 125.16 Z" />
</g>
<g id="#003d41ff">
<path fill="#003d41" opacity="1.00" d=" M 153.41 112.51 C 186.27 98.71 222.72 94.47 258.07 97.64 C 294.63 100.64 330.58 113.48 359.77 135.89 C 353.43 143.58 346.65 150.93 340.73 158.94 C 351.75 169.92 362.60 181.10 373.84 191.86 C 381.31 185.46 388.74 178.99 396.51 172.96 C 404.58 184.54 411.48 197.25 414.98 210.99 C 406.01 214.17 397.09 217.49 388.14 220.75 C 391.69 234.02 395.28 247.28 398.82 260.55 C 406.08 259.52 413.22 257.76 420.52 256.97 C 419.43 283.76 409.42 309.93 392.84 330.94 C 376.72 351.33 356.00 367.96 333.04 380.05 C 295.24 399.98 251.11 405.53 209.00 400.76 C 176.26 397.31 144.31 385.63 117.52 366.41 C 95.50 350.66 75.98 330.49 64.36 305.78 C 52.79 281.74 49.74 254.11 53.71 227.86 C 57.27 204.13 68.08 181.78 83.55 163.53 C 102.45 141.42 126.62 123.84 153.41 112.51 M 248.08 125.16 C 221.44 133.90 195.42 145.68 173.38 163.25 C 156.20 176.64 140.09 192.13 129.30 211.25 C 122.14 224.60 116.19 238.88 114.00 253.96 C 112.08 271.11 114.34 289.00 122.30 304.46 C 130.47 320.20 143.27 333.42 158.31 342.72 C 176.08 353.44 196.57 358.59 216.93 361.57 C 253.07 366.55 290.11 364.72 325.66 356.64 C 325.16 321.68 325.15 286.71 325.33 251.74 C 301.04 251.66 276.75 251.69 252.45 251.72 C 252.48 261.48 252.67 271.25 253.20 280.99 C 252.64 289.55 252.74 298.13 252.67 306.71 C 242.44 307.15 232.17 305.26 222.75 301.27 C 216.29 298.48 209.82 295.26 204.86 290.15 C 197.00 282.62 193.40 271.60 192.89 260.93 C 193.51 253.00 195.49 245.13 199.00 237.98 C 205.77 223.83 217.96 213.04 231.40 205.35 C 252.92 192.56 276.90 183.99 301.68 180.38 C 296.41 158.61 291.23 136.81 286.00 115.03 C 273.11 117.28 260.57 121.30 248.08 125.16 Z" />
</g>
</svg>
